<svg width="24" height="24" viewBox="0 0 24 24" fill="none" xmlns="http://www.w3.org/2000/svg">
<path fill-rule="evenodd" clip-rule="evenodd" d="M10.5 3C6.35784 3 2.99998 6.35786 2.99998 10.5C2.99998 11.8539 3.35783 13.1212 3.98341 14.2157C4.1348 14.4805 4.157 14.8 4.0437 15.0833L2.82507 18.1298L5.74512 16.8784C6.03999 16.752 6.37759 16.7748 6.65282 16.9396C7.4621 17.4243 8.36975 17.7604 9.33891 17.9108C9.71675 17.9695 10.1045 18 10.5 18C14.6421 18 18 14.6421 18 10.5C18 10.1045 17.9695 9.71677 17.9108 9.33893C17.3534 5.74838 14.2467 3 10.5 3ZM0.999979 10.5C0.999979 5.25329 5.25327 1 10.5 1C15.0993 1 18.9338 4.26758 19.8114 8.60809C21.7463 10.0667 23 12.3868 23 15C23 16.2691 22.7038 17.4714 22.1762 18.5393L22.9343 20.3082C23.6455 21.9677 21.9676 23.6455 20.3082 22.9343L18.5393 22.1762C17.4714 22.7038 16.2691 23 15 23C12.3868 23 10.0667 21.7463 8.60806 19.8114C7.71323 19.6305 6.86395 19.3238 6.07971 18.9109L3.61291 19.9681C1.97517 20.67 0.306372 19.0414 0.968119 17.3871L2.01348 14.7737C1.36499 13.4882 0.999979 12.0355 0.999979 10.5ZM11.5906 19.9381C12.5592 20.6082 13.7339 21 15 21C16.0917 21 17.1126 20.7093 17.9925 20.2018C18.2654 20.0444 18.5965 20.0248 18.886 20.1489L21.096 21.0961L20.1489 18.8861C20.0248 18.5965 20.0444 18.2654 20.2018 17.9925C20.7093 17.1126 21 16.0917 21 15C21 13.7339 20.6081 12.5592 19.9381 11.5906C19.438 15.9658 15.9658 19.438 11.5906 19.9381ZM6.00006 9C6.00006 8.44772 6.44778 8 7.00006 8H10.0001C10.5523 8 11.0001 8.44772 11.0001 9C11.0001 9.55228 10.5523 10 10.0001 10H7.00006C6.44778 10 6.00006 9.55228 6.00006 9ZM6.00006 13C6.00006 12.4477 6.44778 12 7.00006 12H14.0001C14.5523 12 15.0001 12.4477 15.0001 13C15.0001 13.5523 14.5523 14 14.0001 14H7.00006C6.44778 14 6.00006 13.5523 6.00006 13Z" fill="black"/>
</svg>
